<svg role="img" viewBox="0 0 24 24" xmlns="http://www.w3.org/2000/svg"><title>Twilio</title><path d="M12 24c6.628 0 12-5.373 12-12S18.628 0 12 0 0 5.373 0 12s5.372 12 12 12zm5.62-5.52c.28-.14.47-.42.47-.74 0-.32-.18-.59-.47-.74-1.28-.65-2.22-1.8-2.22-3.48s.94-2.83 2.22-3.48c.29-.15.47-.43.47-.74 0-.32-.18-.6-.47-.74-2.1-.98-4.6-1.52-7.24-1.52-4.24 0-7.88 1.6-9.28 4.04-.18.31-.18.7 0 1.01.21.36.56.59.95.59.32 0 .6-.18.8-.46 1.05-1.74 2.87-2.92 5.53-2.92 1.6 0 2.9.36 3.96.95-.3.14-.56.33-.76.56-.51.57-.8 1.35-.8 2.37s.29 1.8.8 2.37c.2.23.46.42.76.56-1.05.59-2.35.95-3.96.95-2.66 0-4.48-1.18-5.53-2.92-.2-.28-.48-.46-.8-.46-.39 0-.74.23-.95.59-.18.31-.18.7 0 1.01 1.4 2.44 5.04 4.04 9.28 4.04 2.64 0 5.14-.54 7.24-1.52z"/></svg> 